<svg xmlns="http://www.w3.org/2000/svg" viewBox="0 0 62 58.1"><defs><style>.a{fill:#ff4100;}</style></defs><title>svg-original-2</title><path class="a" d="M13.3.4A4.09,4.09,0,0,0,10.6.1,12.79,12.79,0,0,0,4.8,3.5V2.8C4.8,1.8,3.7,1,2.4,1S0,1.8,0,2.8V25.1H4.8V12.7a12.79,12.79,0,0,0,5.8,3.4,3.61,3.61,0,0,0,2.7-.3A1.92,1.92,0,0,0,14.5,14V2.2A1.92,1.92,0,0,0,13.3.4Z" transform="translate(0 0)"/><path class="a" d="M4.8,26.5h0v1.7a25.93,25.93,0,0,0-1,5.7H1.7A19.42,19.42,0,0,1,.1,28.2V26.6H4.8Z" transform="translate(0 0)"/><path class="a" d="M9.3,48.3a23.8,23.8,0,0,1-3.6-3.4C3.5,42,3.6,37,3.6,35.2H1.7c-.1,2-.1,7.2,2.3,10.4a23.16,23.16,0,0,0,3.9,3.7c2.9,2.4,6,4.9,5.7,8.7l1.9.1C15.8,53.6,12.3,50.8,9.3,48.3Z" transform="translate(0 0)"/><path class="a" d="M48.7.4A4.09,4.09,0,0,1,51.4.1a11.25,11.25,0,0,1,5.8,3.4V2.8c0-1,1.1-1.8,2.4-1.8S62,1.8,62,2.8V25.1H57.2V12.7a12.79,12.79,0,0,1-5.8,3.4,3.61,3.61,0,0,1-2.7-.3A1.92,1.92,0,0,1,47.5,14V2.2A1.78,1.78,0,0,1,48.7.4Z" transform="translate(0 0)"/><path class="a" d="M57.1,26.5h0v1.7a25.93,25.93,0,0,1,1,5.7h2.1a19.42,19.42,0,0,0,1.6-5.7V26.6H57.1Z" transform="translate(0 0)"/><path class="a" d="M52.7,48.3a23.8,23.8,0,0,0,3.6-3.4c2.2-2.9,2.1-7.9,2.1-9.7h1.9c.1,2,.1,7.2-2.3,10.4a23.16,23.16,0,0,1-3.9,3.7c-2.9,2.4-6,4.9-5.7,8.7H46.5C46.2,53.6,49.6,50.8,52.7,48.3Z" transform="translate(0 0)"/></svg>