<?xml version="1.0" encoding="utf-8"?>
<!-- Generator: Adobe Illustrator 19.2.0, SVG Export Plug-In . SVG Version: 6.00 Build 0)  -->
<!DOCTYPE svg PUBLIC "-//W3C//DTD SVG 1.1//EN" "http://www.w3.org/Graphics/SVG/1.1/DTD/svg11.dtd">
<svg version="1.1" id="Layer_1" xmlns="http://www.w3.org/2000/svg" xmlns:xlink="http://www.w3.org/1999/xlink" x="0px" y="0px"
	 width="200px" height="200px" viewBox="0 0 200 200" enable-background="new 0 0 200 200" xml:space="preserve">
<g>
	<polygon fill="#77BC1F" points="65.7,16.7 65.7,54.8 27.6,54.8 27.6,85.3 65.7,85.3 65.7,123.5 96.2,123.5 96.2,85.3 134.3,85.3 
		134.3,54.8 96.2,54.8 96.2,16.7 	"/>
	<polygon fill="#BABCBC" points="110.3,16.7 110.3,32 157.2,32 157.2,108.2 134.3,108.2 134.3,99.4 119.1,99.4 119.1,108.2 
		110.3,108.2 110.3,123.5 119.1,123.5 119.1,146.3 42.8,146.3 42.8,99.4 27.6,99.4 27.6,161.6 42.8,161.6 42.8,183.3 64.6,161.6 
		134.3,161.6 134.3,123.5 141.8,123.5 163.7,145.2 163.7,123.5 172.4,123.5 172.4,16.7 	"/>
</g>
</svg>
